<svg id="hks-logo" xmlns="http://www.w3.org/2000/svg" width="123.213" height="23.554" viewBox="0 0 123.213 23.554">
  <path id="Union_1" data-name="Union 1" d="M11.573,14.857a4.416,4.416,0,0,1-6.144,0c-.686,4.325-2.784,7.7-5.428,8.7V0C2.75,1.035,4.909,4.646,5.5,9.222a4.42,4.42,0,0,1,5.993,0C12.091,4.646,14.251,1.035,17,0V23.554C14.357,22.56,12.259,19.183,11.573,14.857Z" fill="#4b8ed1"/>
  <g id="Group_2" data-name="Group 2" transform="translate(-57 -28)">
    <path id="Path_3" data-name="Path 3" d="M11.391,0H9.264V-5.458H3.533V0H1.4V-12.8H3.533v5.625h5.73V-12.8h2.127Zm5.156-5.537H15.07V0H12.934V-12.8H15.07v5.423h1.222L20.308-12.8H22.84L18.181-6.688,23.2,0H20.59ZM30.21-3.287a1.648,1.648,0,0,0-.593-1.31,5.572,5.572,0,0,0-2.1-.914A8.867,8.867,0,0,1,24.221-7a2.966,2.966,0,0,1-1.156-2.43,3.1,3.1,0,0,1,1.279-2.549,5.193,5.193,0,0,1,3.3-1,4.919,4.919,0,0,1,3.388,1.134,3.384,3.384,0,0,1,1.235,2.725l-.018.053H30.2a2.061,2.061,0,0,0-.668-1.6,2.727,2.727,0,0,0-1.907-.611,2.789,2.789,0,0,0-1.8.51A1.62,1.62,0,0,0,25.2-9.448a1.441,1.441,0,0,0,.681,1.213,7.543,7.543,0,0,0,2.254.914,7.508,7.508,0,0,1,3.138,1.529A3.214,3.214,0,0,1,32.346-3.3,3,3,0,0,1,31.067-.76a5.522,5.522,0,0,1-3.362.945A5.972,5.972,0,0,1,24.19-.875a3.256,3.256,0,0,1-1.468-2.9l.018-.053H24.8A2,2,0,0,0,25.6-2.087a3.541,3.541,0,0,0,2.1.576,3.094,3.094,0,0,0,1.846-.479A1.52,1.52,0,0,0,30.21-3.287ZM34.447-5a6.4,6.4,0,0,1,.322-2.051A4.921,4.921,0,0,1,35.7-8.715a4.312,4.312,0,0,1,1.5-1.113,4.783,4.783,0,0,1,2.009-.406A4.525,4.525,0,0,1,40.733-10a3.9,3.9,0,0,1,1.085.574,3.4,3.4,0,0,1,.721.749,4.145,4.145,0,0,1,.427.763,3.747,3.747,0,0,1,.2.616q.056.259.056.287h-.616A2.986,2.986,0,0,0,42.2-8.141a3.1,3.1,0,0,0-.77-.847A3.422,3.422,0,0,0,40.4-9.52a3.893,3.893,0,0,0-1.2-.182,3.92,3.92,0,0,0-1.75.378,3.93,3.93,0,0,0-1.3,1.015,4.472,4.472,0,0,0-.812,1.491A5.806,5.806,0,0,0,35.063-5a5.806,5.806,0,0,0,.28,1.82,4.472,4.472,0,0,0,.812,1.491,3.93,3.93,0,0,0,1.3,1.015,3.92,3.92,0,0,0,1.75.378,3.155,3.155,0,0,0,1.365-.3,3.737,3.737,0,0,0,1.113-.8,3.945,3.945,0,0,0,.763-1.148,3.9,3.9,0,0,0,.329-1.351h.616a4.91,4.91,0,0,1-.441,1.652,4.624,4.624,0,0,1-.91,1.309,4,4,0,0,1-1.281.861,3.947,3.947,0,0,1-1.554.308A4.783,4.783,0,0,1,37.2-.168a4.312,4.312,0,0,1-1.5-1.113,4.921,4.921,0,0,1-.931-1.666A6.4,6.4,0,0,1,34.447-5Zm10.5,1.4a4.733,4.733,0,0,1,.217-1.449,3.638,3.638,0,0,1,.637-1.2,3.025,3.025,0,0,1,1.036-.819,3.181,3.181,0,0,1,1.414-.3,3.181,3.181,0,0,1,1.414.3,3.025,3.025,0,0,1,1.036.819,3.638,3.638,0,0,1,.637,1.2A4.733,4.733,0,0,1,51.555-3.6a4.8,4.8,0,0,1-.217,1.456,3.548,3.548,0,0,1-.637,1.2,3.063,3.063,0,0,1-1.036.812,3.181,3.181,0,0,1-1.414.3,3.181,3.181,0,0,1-1.414-.3A3.063,3.063,0,0,1,45.8-.945a3.548,3.548,0,0,1-.637-1.2A4.8,4.8,0,0,1,44.947-3.6Zm.532,0a4.212,4.212,0,0,0,.182,1.239A3.361,3.361,0,0,0,46.193-1.3a2.59,2.59,0,0,0,.868.735,2.514,2.514,0,0,0,1.19.273,2.514,2.514,0,0,0,1.19-.273,2.59,2.59,0,0,0,.868-.735,3.361,3.361,0,0,0,.532-1.057A4.212,4.212,0,0,0,51.023-3.6a4.212,4.212,0,0,0-.182-1.239,3.361,3.361,0,0,0-.532-1.057,2.59,2.59,0,0,0-.868-.735,2.514,2.514,0,0,0-1.19-.273,2.514,2.514,0,0,0-1.19.273,2.59,2.59,0,0,0-.868.735,3.361,3.361,0,0,0-.532,1.057A4.212,4.212,0,0,0,45.479-3.6ZM53.5-7.2h.532v1.54h.028a2.309,2.309,0,0,1,.4-.721,2.652,2.652,0,0,1,.6-.539,2.649,2.649,0,0,1,.749-.336,3.092,3.092,0,0,1,.826-.112,3.268,3.268,0,0,1,1.071.154,2.1,2.1,0,0,1,.721.406,1.961,1.961,0,0,1,.441.567A2.621,2.621,0,0,1,59.1-5.6a3.755,3.755,0,0,1,.084.623q.014.3.014.525V0h-.532V-4.55q0-.266-.042-.672A2.043,2.043,0,0,0,58.38-6a1.778,1.778,0,0,0-.616-.637A2.1,2.1,0,0,0,56.623-6.9a2.537,2.537,0,0,0-1.092.224,2.365,2.365,0,0,0-.812.623,2.744,2.744,0,0,0-.511.952,4,4,0,0,0-.175,1.211V0H53.5Zm8.218,4.8a2.209,2.209,0,0,0,.224.889,2.153,2.153,0,0,0,.511.658,2.144,2.144,0,0,0,.735.413,2.861,2.861,0,0,0,.91.14,4.816,4.816,0,0,0,.749-.063,2.6,2.6,0,0,0,.742-.231,1.54,1.54,0,0,0,.567-.469,1.243,1.243,0,0,0,.224-.763,1.125,1.125,0,0,0-.364-.91,2.546,2.546,0,0,0-.917-.476,9.3,9.3,0,0,0-1.19-.273,6.172,6.172,0,0,1-1.19-.315,2.422,2.422,0,0,1-.917-.6,1.581,1.581,0,0,1-.364-1.127,1.568,1.568,0,0,1,.238-.889,1.771,1.771,0,0,1,.609-.567,2.762,2.762,0,0,1,.833-.3,4.771,4.771,0,0,1,.924-.091,4.2,4.2,0,0,1,1.05.126,2.269,2.269,0,0,1,.847.406,1.931,1.931,0,0,1,.56.714,2.464,2.464,0,0,1,.2,1.05h-.532a2,2,0,0,0-.161-.84,1.462,1.462,0,0,0-.448-.567,1.948,1.948,0,0,0-.679-.322,3.236,3.236,0,0,0-.84-.105,3.957,3.957,0,0,0-.735.07,2.123,2.123,0,0,0-.665.238,1.491,1.491,0,0,0-.483.434,1.083,1.083,0,0,0-.189.644,1.1,1.1,0,0,0,.21.7,1.5,1.5,0,0,0,.553.427,3.821,3.821,0,0,0,.77.259l.861.2q.532.1,1,.231a2.821,2.821,0,0,1,.812.364,1.65,1.65,0,0,1,.539.6,1.937,1.937,0,0,1,.2.924,1.64,1.64,0,0,1-.266.966,2.052,2.052,0,0,1-.672.609,2.848,2.848,0,0,1-.9.322A5.4,5.4,0,0,1,64.1.168,3.875,3.875,0,0,1,62.958.007a2.589,2.589,0,0,1-.917-.49,2.334,2.334,0,0,1-.616-.805,2.716,2.716,0,0,1-.238-1.106ZM74.6,0h-.532V-1.54h-.028a2.309,2.309,0,0,1-.4.721,2.652,2.652,0,0,1-.6.539,2.649,2.649,0,0,1-.749.336,3.092,3.092,0,0,1-.826.112A3.268,3.268,0,0,1,70.392.014a2.1,2.1,0,0,1-.721-.406,1.962,1.962,0,0,1-.441-.567A2.621,2.621,0,0,1,69-1.6a3.754,3.754,0,0,1-.084-.623q-.014-.3-.014-.525V-7.2h.532v4.55a6.644,6.644,0,0,0,.042.679,2.036,2.036,0,0,0,.245.77,1.8,1.8,0,0,0,.609.637,2.089,2.089,0,0,0,1.148.266,2.549,2.549,0,0,0,1.085-.224,2.348,2.348,0,0,0,.819-.623,2.744,2.744,0,0,0,.511-.952A4,4,0,0,0,74.067-3.3V-7.2H74.6Zm2.926-10V0h-.532V-10Zm5.04,3.262H81v5.026a1.944,1.944,0,0,0,.1.686.784.784,0,0,0,.3.385,1.069,1.069,0,0,0,.49.161,5.021,5.021,0,0,0,.665.014V0a4.959,4.959,0,0,1-.791-.007,1.591,1.591,0,0,1-.679-.21,1.231,1.231,0,0,1-.469-.525,1.986,1.986,0,0,1-.147-.966V-6.734h-1.33V-7.2h1.33v-2.24H81V-7.2h1.568Zm1.806-1.82V-10H84.9v1.442Zm0,8.554V-7.2H84.9V0ZM87.3-7.2h.532v1.54h.028a2.309,2.309,0,0,1,.4-.721,2.652,2.652,0,0,1,.6-.539,2.649,2.649,0,0,1,.749-.336,3.092,3.092,0,0,1,.826-.112A3.268,3.268,0,0,1,91.5-7.21a2.1,2.1,0,0,1,.721.406,1.962,1.962,0,0,1,.441.567A2.621,2.621,0,0,1,92.9-5.6a3.754,3.754,0,0,1,.084.623q.014.3.014.525V0h-.532V-4.55q0-.266-.042-.672A2.043,2.043,0,0,0,92.176-6a1.778,1.778,0,0,0-.616-.637A2.1,2.1,0,0,0,90.419-6.9a2.536,2.536,0,0,0-1.092.224,2.365,2.365,0,0,0-.812.623A2.744,2.744,0,0,0,88-5.1a4,4,0,0,0-.175,1.211V0H87.3Zm13.916,0V-.378a4.859,4.859,0,0,1-.14,1.169,2.6,2.6,0,0,1-.483,1,2.366,2.366,0,0,1-.945.693,3.883,3.883,0,0,1-1.526.259,4.682,4.682,0,0,1-1.078-.119,2.6,2.6,0,0,1-.882-.378,1.927,1.927,0,0,1-.609-.686A2.432,2.432,0,0,1,95.291.5h.532a1.931,1.931,0,0,0,.238.812,1.707,1.707,0,0,0,.511.553,2.156,2.156,0,0,0,.707.315,3.455,3.455,0,0,0,.84.1,3.017,3.017,0,0,0,1.239-.224,2.143,2.143,0,0,0,.791-.581,2.1,2.1,0,0,0,.413-.812,3.61,3.61,0,0,0,.119-.917V-1.9h-.028A2.863,2.863,0,0,1,99.624-.686a2.843,2.843,0,0,1-1.575.42A3.217,3.217,0,0,1,96.67-.539,2.664,2.664,0,0,1,95.7-1.3a3.258,3.258,0,0,1-.574-1.127,4.954,4.954,0,0,1-.189-1.4,4.491,4.491,0,0,1,.2-1.358,3.38,3.38,0,0,1,.6-1.127,2.874,2.874,0,0,1,.973-.77,2.981,2.981,0,0,1,1.337-.287,3,3,0,0,1,1.575.434A2.41,2.41,0,0,1,100.653-5.7h.028V-7.2ZM98.049-6.9a2.329,2.329,0,0,0-1.141.266,2.406,2.406,0,0,0-.8.7,3.176,3.176,0,0,0-.476.987,4.012,4.012,0,0,0-.161,1.127,4.362,4.362,0,0,0,.161,1.2,2.838,2.838,0,0,0,.49.987,2.393,2.393,0,0,0,.812.665,2.428,2.428,0,0,0,1.113.245A2.478,2.478,0,0,0,99.2-.98a2.38,2.38,0,0,0,.819-.686,3.01,3.01,0,0,0,.49-.987,4.162,4.162,0,0,0,.161-1.169,4.184,4.184,0,0,0-.161-1.162,2.922,2.922,0,0,0-.49-.987A2.413,2.413,0,0,0,99.2-6.65,2.478,2.478,0,0,0,98.049-6.9Z" transform="translate(79 44.981)" fill="#707070"/>
    <path id="Path_757" data-name="Path 757" d="M11.391,0H9.264V-5.458H3.533V0H1.4V-12.8H3.533v5.625h5.73V-12.8h2.127Zm5.156-5.537H15.07V0H12.934V-12.8H15.07v5.423h1.222L20.308-12.8H22.84L18.181-6.688,23.2,0H20.59ZM30.21-3.287a1.648,1.648,0,0,0-.593-1.31,5.572,5.572,0,0,0-2.1-.914A8.867,8.867,0,0,1,24.221-7a2.966,2.966,0,0,1-1.156-2.43,3.1,3.1,0,0,1,1.279-2.549,5.193,5.193,0,0,1,3.3-1,4.919,4.919,0,0,1,3.388,1.134,3.384,3.384,0,0,1,1.235,2.725l-.018.053H30.2a2.061,2.061,0,0,0-.668-1.6,2.727,2.727,0,0,0-1.907-.611,2.789,2.789,0,0,0-1.8.51A1.62,1.62,0,0,0,25.2-9.448a1.441,1.441,0,0,0,.681,1.213,7.543,7.543,0,0,0,2.254.914,7.508,7.508,0,0,1,3.138,1.529A3.214,3.214,0,0,1,32.346-3.3,3,3,0,0,1,31.067-.76a5.522,5.522,0,0,1-3.362.945A5.972,5.972,0,0,1,24.19-.875a3.256,3.256,0,0,1-1.468-2.9l.018-.053H24.8A2,2,0,0,0,25.6-2.087a3.541,3.541,0,0,0,2.1.576,3.094,3.094,0,0,0,1.846-.479A1.52,1.52,0,0,0,30.21-3.287Z" transform="translate(79 44.981)" fill="#4b8ed1"/>
  </g>
</svg>
